<svg viewBox="3.5 6 25 20.5" fill="none" xmlns="http://www.w3.org/2000/svg"><path fill-rule="evenodd" clip-rule="evenodd" d="M20.7212 8C21.5684 8 22.3697 8.07754 23.1245 8.23242C23.8794 8.38734 24.5347 8.65861 25.0894 9.0459C25.6591 9.41763 26.1058 9.9287 26.4292 10.5791C26.7681 11.2143 26.938 12.0201 26.938 12.9961C26.938 13.9565 26.7832 14.7625 26.4751 15.4131C26.167 16.0635 25.7437 16.5825 25.2046 16.9697C24.6654 17.357 24.026 17.6353 23.2866 17.8057C22.5472 17.9606 21.746 18.0381 20.8833 18.0381H18.2485V24.4521H14.5034V17.876H12.7388L9.34717 24.4521H5.06201L9.18701 17.5039C8.04134 17.287 7.17053 16.7761 6.57471 15.9707C5.97887 15.1497 5.68117 14.1579 5.68115 12.9961C5.68115 12.0356 5.84894 11.2377 6.18506 10.6025C6.50586 9.952 6.94898 9.44111 7.51416 9.06934C8.06417 8.68205 8.71378 8.41077 9.4624 8.25586C10.1956 8.08551 10.9745 8.00002 11.7993 8H20.7212ZM18.2485 14.9707H20.6519C20.9754 14.9707 21.284 14.9399 21.5767 14.8779C21.8847 14.816 22.1542 14.7155 22.3853 14.5762C22.6317 14.4213 22.8247 14.2195 22.9634 13.9717C23.1173 13.7084 23.1938 13.3832 23.1938 12.9961C23.1938 12.578 23.0941 12.2449 22.894 11.9971C22.7092 11.7337 22.4619 11.532 22.1538 11.3926C21.8612 11.2533 21.5302 11.1677 21.1606 11.1367C20.7909 11.0902 20.4361 11.0674 20.0972 11.0674H18.2485V14.9707ZM12.1665 11.0674C11.8458 11.0674 11.5172 11.0903 11.1812 11.1367C10.8452 11.1832 10.5473 11.2767 10.2876 11.416C10.0279 11.5399 9.81308 11.7258 9.64502 11.9736C9.47708 12.2214 9.39308 12.5546 9.39307 12.9727C9.39307 13.4218 9.49236 13.7707 9.69092 14.0186C9.87426 14.2664 10.1116 14.4522 10.4019 14.5762C10.6921 14.6846 11.0206 14.7542 11.3872 14.7852C11.7384 14.8006 12.0743 14.8086 12.395 14.8086H14.5034V11.0674H12.1665Z" fill="#5B6B8A"></path></svg>